<svg version="1.0" xmlns="http://www.w3.org/2000/svg" width="1706.667" height="1310.667" viewBox="0 0 1280 983"><path d="M610.5 180.6c-5.5.7-11.9 1.8-14.2 2.4-2.3.5-7.9 1-12.3 1-4.5 0-10.8.6-13.9 1.4-3.1.7-10.8 2.1-17.1 3-22 3.3-43.4 10.3-55.9 18.5-4.2 2.8-10.5 6.2-14 7.6-3.5 1.3-8.2 3.9-10.5 5.8-2.2 1.8-7.5 5.6-11.6 8.4-11.9 8.1-26.1 23.9-29.5 32.9-1 2.7-3.3 7.1-5.1 9.9-3.9 5.8-9.7 20.8-11.9 30.3-.9 3.7-2.7 10.3-4.1 14.7-5.8 18-3.7 52.3 4.6 75 .9 2.7 2.1 6.9 2.5 9.2 1.5 9.5-2.2 11.9-17 10.9-9-.6-11.4-.4-20.2 1.8-5.5 1.4-13.4 3-17.4 3.6-11.4 1.6-18.2 3.6-33.9 10-19.2 7.8-28.5 12.2-34.5 16.2-2.8 1.9-8.1 5.1-12 7.3-3.8 2.1-11.4 7-16.9 10.9-5.4 3.9-11.7 8.4-14 10.1-2.3 1.6-6.7 5.5-9.7 8.5-3 3-9.9 9.1-15.3 13.4-15 12.1-18.7 18.1-22.9 37.1-1.2 5.5-1.4 9.6-.8 19.5 1.1 16.2 3.3 22.4 12.8 35 9.4 12.5 9.9 13 20.3 20 7.2 4.8 9 6.5 9 8.5 0 3-.4 3.3-10.3 5.6-12.2 2.9-32.5 9.8-38.2 12.9-2.7 1.6-8.5 3.8-12.9 5-10.3 2.9-24.8 8.5-31.1 12-2.7 1.6-7.3 3.7-10.2 4.8-4.9 1.9-16.8 9.1-22.3 13.7-1.5 1.1-6.6 4.3-11.4 7-4.9 2.7-9.9 6.3-11.1 8-3.6 4.7-7.3 20.3-8 34l-.7 12 5.2 13c5 12.3 5.6 13.4 12.9 20.8 9 9.3 21.8 20.5 30.4 26.6 7.9 5.5 26.5 14.6 33.1 16.2 5.7 1.3 31.4 9.6 39.3 12.8 2.9 1.1 9.4 3.2 14.4 4.6 5.1 1.5 10.8 3.4 12.8 4.5 2 1 5.9 2.1 8.6 2.5 2.8.4 10 1.9 16 3.2 6.1 1.4 16 3.4 22 4.4 6.1 1.1 12.4 2.4 14 2.9 3.2 1 23.9 4.3 34 5.5 3.3.4 8.7 1.6 12 2.7 4.5 1.4 10.9 2.1 26 2.8 18.8.9 29 1.8 48 4 20.8 2.4 164.5 1.3 178-1.4 4.5-.9 15.9-2 25.5-2.6 9.6-.5 19.3-1.4 21.5-2 2.2-.5 11-1.3 19.5-1.6 9.4-.3 19.1-1.3 24.5-2.4 5-1.1 11.7-2.4 15-3 15.3-2.7 35.9-6.1 45-7.5 5.5-.9 12.9-2.5 16.4-3.7 3.5-1.1 10.2-3 15-4.3 17.6-4.5 33.1-9.4 39.2-12.4 3.5-1.7 7.4-3.1 8.7-3.1 5 0 26.6-5.1 33.5-7.9 15.3-6.3 31.8-12.5 45.7-17.1 19.4-6.4 33-12.5 42.4-19 2.3-1.5 7.3-4.3 11.1-6.2 12.8-6.2 32.9-17.1 38-20.5 7.2-4.8 17.9-13.5 29.2-23.7 5.4-4.9 12.3-10.7 15.3-12.9 10.4-7.5 14.8-12.5 17.6-20.2 1.5-3.8 4-9.6 5.5-12.7 1.6-3.1 3.8-8.9 4.9-12.9 1.1-4 3.5-10.9 5.4-15.3 1.9-4.5 3.8-10.1 4.1-12.6.4-2.5 1.6-8.6 2.7-13.7 1.8-8 1.9-10.2.9-17.4-.6-4.5-1.1-11.3-1.1-15.1 0-10.3-2.6-20-8.6-32.6-4.3-8.8-7-12.9-12.2-18.5-3.7-4-9.1-9.9-11.9-13.2-7.4-8.8-22.5-17.6-35.8-21-5.5-1.4-13.6-3.8-18-5.2-8.2-2.7-13.7-3-46.3-2-5.3.2-6.6-.1-7.8-1.7-1.7-2.4-1.3-3.8 3.7-14.2 2.2-4.5 4.3-9.8 4.6-11.8 1.3-8-7.5-36.8-16.4-53.6-9.8-18.7-19.8-29.9-33.3-37-4.6-2.5-12.2-7-16.9-10-9.7-6.2-12.2-6.8-31.6-6.9-13.5-.1-15.3-.8-18.4-6.9-3.9-7.7-12-29.1-12.6-33.6-.8-5.3-16.5-37-27.4-55.6-3.8-6.3-8.5-14.5-10.4-18.1-5.8-10.5-21.1-24-35.7-31.4-3-1.5-8-4.4-11-6.5-3-2-7.1-4.5-9-5.5-4.6-2.4-22.9-8.5-25.4-8.5-1.2 0-5.2-1.2-9.1-2.6-11.7-4.3-16.4-5.3-30-6.8-16.4-1.7-38-1.7-51 0z"/></svg>